{
  "accessors": [
    {
      "bufferView": 2,
      "componentType": 5126,
      "count": 4552,
      "max": [1.708693504333496, 0.3512454330921173, 7.20891809463501],
      "min": [-1.7430745363235474, -0.35123398900032043, -7.384713172912598],
      "type": "VEC3"
    },
    {
      "bufferView": 2,
      "byteOffset": 54624,
      "componentType": 5126,
      "count": 4552,
      "max": [0.9999136924743652, 1.0, 1.0],
      "min": [-0.9999760389328003, -1.0, -1.0],
      "type": "VEC3"
    },
    {
      "bufferView": 3,
      "componentType": 5126,
      "count": 4552,
      "max": [0.9999997019767761, 0.999967098236084, 0.9982885122299194, 1.0],
      "min": [-0.998639702796936, -1.0, -0.9959544539451599, -1.0],
      "type": "VEC4"
    },
    {
      "bufferView": 1,
      "componentType": 5126,
      "count": 4552,
      "max": [0.6675901412963867, 0.9809102416038513],
      "min": [0.13855470716953278, 0.021505601704120636],
      "type": "VEC2"
    },
    {
      "bufferView": 0,
      "componentType": 5125,
      "count": 10935,
      "type": "SCALAR"
    }
  ],
  "asset": {
    "extras": {
      "author": "Anjhii (https://sketchfab.com/Anjhii)",
      "license": "CC-BY-4.0 (http://creativecommons.org/licenses/by/4.0/)",
      "source": "https://sketchfab.com/3d-models/crimson-fang-fea3e99c1b4d4759b71003fdd60f5a58",
      "title": "Crimson Fang"
    },
    "generator": "Sketchfab-16.59.0",
    "version": "2.0"
  },
  "bufferViews": [
    {
      "buffer": 0,
      "byteLength": 43740,
      "name": "floatBufferViews",
      "target": 34963
    },
    {
      "buffer": 0,
      "byteLength": 36416,
      "byteOffset": 43740,
      "byteStride": 8,
      "name": "floatBufferViews",
      "target": 34962
    },
    {
      "buffer": 0,
      "byteLength": 109248,
      "byteOffset": 80156,
      "byteStride": 12,
      "name": "floatBufferViews",
      "target": 34962
    },
    {
      "buffer": 0,
      "byteLength": 72832,
      "byteOffset": 189404,
      "byteStride": 16,
      "name": "floatBufferViews",
      "target": 34962
    }
  ],
  "buffers": [
    {
      "byteLength": 262236,
      "uri": "scene.bin"
    }
  ],
  "extensionsUsed": [
    "KHR_materials_emissive_strength",
    "KHR_materials_specular"
  ],
  "images": [
    {
      "uri": "textures/MatSword_baseColor.jpeg"
    },
    {
      "uri": "textures/MatSword_metallicRoughness.png"
    },
    {
      "uri": "textures/MatSword_emissive.jpeg"
    },
    {
      "uri": "textures/MatSword_normal.png"
    }
  ],
  "materials": [
    {
      "doubleSided": true,
      "emissiveFactor": [1.0, 1.0, 1.0],
      "emissiveTexture": {
        "index": 2
      },
      "extensions": {
        "KHR_materials_emissive_strength": {
          "emissiveStrength": 7.055259596981628
        },
        "KHR_materials_specular": {
          "specularColorFactor": [1.0, 1.0, 1.0],
          "specularFactor": 0.18742914264119662
        }
      },
      "name": "MatSword",
      "normalTexture": {
        "index": 3,
        "scale": 0.6019065962867696
      },
      "pbrMetallicRoughness": {
        "baseColorTexture": {
          "index": 0
        },
        "metallicFactor": 0.6872401896843876,
        "metallicRoughnessTexture": {
          "index": 1
        },
        "roughnessFactor": 0.5043824895466348
      }
    }
  ],
  "meshes": [
    {
      "name": "polySurface13_MatSword_0",
      "primitives": [
        {
          "attributes": {
            "NORMAL": 1,
            "POSITION": 0,
            "TANGENT": 2,
            "TEXCOORD_0": 3
          },
          "indices": 4,
          "material": 0,
          "mode": 4
        }
      ]
    }
  ],
  "nodes": [
    {
      "children": [1],
      "matrix": [
        1.0, 0.0, 0.0, 0.0, 0.0, 2.220446049250313e-16, -1.0, 0.0, 0.0, 1.0,
        2.220446049250313e-16, 0.0, 0.0, 0.0, 0.0, 1.0
      ],
      "name": "Sketchfab_model"
    },
    {
      "children": [2],
      "matrix": [
        0.009999999776482582, 0.0, 0.0, 0.0, 0.0, 0.0, 0.009999999776482582,
        0.0, 0.0, -0.009999999776482582, 0.0, 0.0, 0.0, 0.0, 0.0, 1.0
      ],
      "name": "9535b2b261014012a863d78fa48fad02.fbx"
    },
    {
      "children": [3],
      "name": "RootNode"
    },
    {
      "children": [4],
      "name": "polySurface13"
    },
    {
      "mesh": 0,
      "name": "polySurface13_MatSword_0"
    }
  ],
  "samplers": [
    {
      "magFilter": 9729,
      "minFilter": 9987,
      "wrapS": 10497,
      "wrapT": 10497
    }
  ],
  "scene": 0,
  "scenes": [
    {
      "name": "Sketchfab_Scene",
      "nodes": [0]
    }
  ],
  "textures": [
    {
      "sampler": 0,
      "source": 0
    },
    {
      "sampler": 0,
      "source": 1
    },
    {
      "sampler": 0,
      "source": 2
    },
    {
      "sampler": 0,
      "source": 3
    }
  ]
}
